<svg width="882" height="212" viewBox="0 0 882 212" fill="none" xmlns="http://www.w3.org/2000/svg">
<g filter="url(#filter0_i)">
<path d="M47.52 173.576H122.4L114.912 209H0.288L43.2 7.39999H154.944L147.456 42.824H75.456L65.376 89.192H126.144L118.656 124.328H57.888L47.52 173.576ZM180.108 4.51999H219.564L176.076 209H136.62L180.108 4.51999ZM331.538 147.656H248.882C246.962 158.216 247.442 166.568 250.322 172.712C253.202 178.664 258.482 181.64 266.162 181.64C278.066 181.64 286.322 175.304 290.93 162.632H329.522C318.386 195.464 296.306 211.88 263.282 211.88C247.154 211.88 234.098 207.272 224.114 198.056C214.322 188.648 209.426 176.072 209.426 160.328C209.426 133.064 216.914 109.928 231.89 90.92C246.866 71.72 265.298 62.12 287.186 62.12C301.586 62.12 313.586 66.344 323.186 74.792C332.786 83.24 337.586 95.816 337.586 112.52C337.586 124.616 335.57 136.328 331.538 147.656ZM297.842 99.848C294.962 94.856 290.45 92.36 284.306 92.36C278.162 92.36 272.402 95.048 267.026 100.424C261.65 105.608 257.618 112.424 254.93 120.872H299.858C301.586 111.656 300.914 104.648 297.842 99.848ZM517.653 62.12C530.709 62.12 540.117 66.056 545.877 73.928C551.829 81.608 553.173 93.224 549.909 108.776L528.597 209H489.141L508.725 115.976C510.069 109.64 509.493 104.648 506.997 101C504.501 97.352 500.853 95.528 496.053 95.528C490.869 95.528 486.069 97.544 481.653 101.576C477.429 105.608 474.645 110.984 473.301 117.704L454.005 209H414.549L434.133 116.84C435.477 110.312 434.997 105.128 432.693 101.288C430.389 97.448 426.837 95.528 422.037 95.528C417.045 95.528 412.341 97.544 407.925 101.576C403.701 105.416 400.821 110.696 399.285 117.416L379.701 209H340.245L370.773 65H406.773L407.061 80.264H409.653C419.829 68.168 431.925 62.12 445.941 62.12C461.493 62.12 471.093 68.744 474.741 81.992H477.045C488.373 68.744 501.909 62.12 517.653 62.12ZM629.177 40.808C624.569 45.416 619.097 47.72 612.761 47.72C606.425 47.72 600.857 45.32 596.057 40.52C591.257 35.72 588.857 30.248 588.857 24.104C588.857 17.576 591.257 12.008 596.057 7.39999C600.857 2.79199 606.425 0.487989 612.761 0.487989C619.097 0.487989 624.569 2.79199 629.177 7.39999C633.785 12.008 636.089 17.576 636.089 24.104C636.089 30.44 633.785 36.008 629.177 40.808ZM623.417 65L592.889 209H553.432L583.961 65H623.417ZM724.124 62.12C737.564 62.12 747.356 66.632 753.5 75.656C759.644 84.68 761.084 97.064 757.82 112.808L737.372 209H697.916L716.636 120.296C718.364 112.424 717.788 106.376 714.908 102.152C712.028 97.928 707.708 95.816 701.948 95.816C695.996 95.816 690.524 98.024 685.532 102.44C680.54 106.856 677.18 113.288 675.452 121.736L656.732 209H617.276L647.804 65H683.804L684.092 80.264H686.684C697.628 68.168 710.108 62.12 724.124 62.12ZM881.996 65L875.372 96.104H840.812L826.124 164.936C823.82 175.496 828.428 180.776 839.948 180.776C844.172 180.776 848.492 180.296 852.908 179.336L846.572 208.712C837.74 210.824 829.772 211.88 822.668 211.88C807.308 211.88 796.556 208.232 790.412 200.936C784.46 193.448 782.732 183.56 785.228 171.272L801.356 96.104H774.284L780.908 65H790.7C797.612 65 803.18 63.56 807.404 60.68C811.628 57.608 814.604 52.232 816.332 44.552L819.788 27.56H855.5L847.436 65H881.996Z" fill="#D1406B" fill-opacity="0.5"/>
</g>
<defs>
<filter id="filter0_i" x="0.288086" y="0.488281" width="883.708" height="213.392" filterUnits="userSpaceOnUse" color-interpolation-filters="sRGB">
<feFlood flood-opacity="0" result="BackgroundImageFix"/>
<feBlend mode="normal" in="SourceGraphic" in2="BackgroundImageFix" result="shape"/>
<feColorMatrix in="SourceAlpha" type="matrix" values="0 0 0 0 0 0 0 0 0 0 0 0 0 0 0 0 0 0 127 0" result="hardAlpha"/>
<feOffset dx="5" dy="6"/>
<feGaussianBlur stdDeviation="1"/>
<feComposite in2="hardAlpha" operator="arithmetic" k2="-1" k3="1"/>
<feColorMatrix type="matrix" values="0 0 0 0 0 0 0 0 0 0 0 0 0 0 0 0 0 0 0.25 0"/>
<feBlend mode="normal" in2="shape" result="effect1_innerShadow"/>
</filter>
</defs>
</svg>
